<?xml version="1.0" encoding="UTF-8"?>
<svg version="1.1" xmlns="http://www.w3.org/2000/svg" width="50" height="50">
<path d="M0 0 C5.56340585 3.36669624 9.53349183 8.25193794 11.5 14.4375 C12.30594257 22.2813829 12.59671889 30.02934467 7.5 36.4375 C3.04867668 41.14197914 -1.19064516 44.09747071 -7.76953125 44.7734375 C-16.04371997 44.8646634 -22.08428015 44.61560264 -28.2421875 38.7890625 C-34.17397269 32.28964236 -34.96296445 26.57688134 -34.80859375 17.88671875 C-34.22339005 11.3457711 -31.85547257 7.43687235 -27.0625 3.0625 C-19.84507341 -2.93248543 -8.52200107 -3.84066973 0 0 Z M-29.3359375 10.75390625 C-32.66029881 15.56195901 -32.03921373 21.86562479 -31.5 27.4375 C-30.28012294 30.85431206 -28.86635943 33.75432028 -25.5 35.4375 C-23.48074133 34.67149418 -23.48074133 34.67149418 -21.375 33.5 C-20.65054687 33.11972656 -19.92609375 32.73945312 -19.1796875 32.34765625 C-18.62539063 32.04730469 -18.07109375 31.74695313 -17.5 31.4375 C-18.00920281 27.35394881 -18.00920281 27.35394881 -19.5234375 23.578125 C-20.74183093 20.9074066 -20.76607835 18.86375921 -20.75 15.9375 C-20.75515625 14.9990625 -20.7603125 14.060625 -20.765625 13.09375 C-20.49254166 10.36291656 -19.98065378 8.73147065 -18.5 6.4375 C-16.17404054 5.27452027 -14.71276769 5.27149309 -12.125 5.25 C-10.96871094 5.22873047 -10.96871094 5.22873047 -9.7890625 5.20703125 C-7.18264456 5.46945217 -5.64030936 5.91887695 -3.5 7.4375 C-1.7972935 12.50434175 -2.39417682 18.3105016 -3.5 23.4375 C-3.87125 24.13875 -4.2425 24.84 -4.625 25.5625 C-5.66401997 27.48053244 -5.66401997 27.48053244 -5.625 30 C-4.2441813 32.99177384 -3.43764634 33.12428137 -0.4375 34.25 C0.86888688 34.66556419 2.17994442 35.06764388 3.5 35.4375 C7.98444734 29.99209966 9.29953814 25.38704869 8.98828125 18.34375 C8.01739969 12.56506293 5.14911944 8.96595216 0.9375 5.0625 C-10.28685374 -2.42040249 -21.13043668 0.90291729 -29.3359375 10.75390625 Z " fill="#000000" transform="translate(36.5,3.5625)"/>
</svg>
